<?xml version="1.0" standalone="no"?>
<!DOCTYPE svg PUBLIC "-//W3C//DTD SVG 20010904//EN"
 "http://www.w3.org/TR/2001/REC-SVG-20010904/DTD/svg10.dtd">
<svg version="1.0" xmlns="http://www.w3.org/2000/svg"
 width="512.000000pt" height="512.000000pt" viewBox="0 0 512.000000 512.000000"
 preserveAspectRatio="xMidYMid meet">

<g transform="translate(0.000000,512.000000) scale(0.100000,-0.100000)"
fill="#D3D3FF" stroke="none">
<path d="M1365 5113 c-91 -8 -261 -46 -357 -79 -369 -128 -670 -391 -843 -739
-92 -185 -131 -317 -155 -520 -14 -124 -14 -2302 1 -2433 45 -418 258 -792
596 -1046 157 -118 385 -221 574 -260 163 -33 255 -36 1386 -36 1228 0 1250 1
1453 55 321 87 625 299 819 571 79 112 182 321 216 439 61 215 58 144 62 1420
3 835 1 1203 -7 1285 -35 347 -184 662 -431 909 -242 243 -556 393 -901 430
-90 10 -2308 13 -2413 4z m1503 -1092 c486 -106 879 -428 1072 -879 34 -80
100 -284 100 -311 0 -8 -87 -11 -326 -9 l-326 3 -28 68 c-143 333 -482 545
-840 524 -368 -22 -679 -273 -782 -632 -32 -115 -33 -335 0 -448 70 -246 238
-445 465 -552 124 -59 213 -78 367 -78 117 0 147 4 225 27 244 73 418 215 535
435 l45 86 328 3 c297 2 327 1 327 -14 0 -32 -72 -231 -120 -331 -196 -412
-585 -715 -1043 -815 -85 -19 -134 -22 -297 -22 -213 -1 -280 9 -460 66 -510
162 -892 590 -1007 1128 -26 121 -26 459 0 580 85 398 306 727 640 951 191
128 392 202 662 243 75 11 372 -3 463 -23z"/>
</g>
</svg>
